<?xml version="1.0" encoding="UTF-8" standalone="no"?>
<svg
   xmlns:dc="http://purl.org/dc/elements/1.1/"
   xmlns:cc="http://creativecommons.org/ns#"
   xmlns:rdf="http://www.w3.org/1999/02/22-rdf-syntax-ns#"
   xmlns:svg="http://www.w3.org/2000/svg"
   xmlns="http://www.w3.org/2000/svg"
   xmlns:sodipodi="http://sodipodi.sourceforge.net/DTD/sodipodi-0.dtd"
   xmlns:inkscape="http://www.inkscape.org/namespaces/inkscape"
   version="1.0"
   width="128px"
   height="128px"
   viewBox="0 0 1280 1280"
   preserveAspectRatio="xMidYMid meet"
   id="svg2"
   inkscape:version="0.91 r13725"
   sodipodi:docname="icon.svg">
  <metadata
     id="metadata22">
    <rdf:RDF>
      <cc:Work
         rdf:about="">
        <dc:format>image/svg+xml</dc:format>
        <dc:type
           rdf:resource="http://purl.org/dc/dcmitype/StillImage" />
        <dc:title></dc:title>
      </cc:Work>
    </rdf:RDF>
  </metadata>
  <defs
     id="defs20" />
  <sodipodi:namedview
     pagecolor="#ffffff"
     bordercolor="#666666"
     borderopacity="1"
     objecttolerance="10"
     gridtolerance="10"
     guidetolerance="10"
     inkscape:pageopacity="0"
     inkscape:pageshadow="2"
     inkscape:window-width="1920"
     inkscape:window-height="2123"
     id="namedview18"
     showgrid="false"
     inkscape:zoom="3.6875"
     inkscape:cx="38.558192"
     inkscape:cy="-12.16221"
     inkscape:window-x="0"
     inkscape:window-y="0"
     inkscape:window-maximized="1"
     inkscape:current-layer="svg2" />
  <g
     id="layer1"
     fill="#0867a3"
     stroke="none">
    <path
       d="m 100,630 0,-551 484,3 c 545,3 534.5424,-65.372881 602.5424,19.62712 l 31,103.08474 3,489 3,489.00004 L 645,1180 l -545,0 z m 260,196 c 0,-18 -6,-25 -22,-28 -21,-3 -24,-10 -28,-70 -3,-44 -11,-73 -21,-84 -16,-15 -15,-18 2,-35 15,-15 19,-34 19,-84 0,-58 2,-65 20,-65 15,0 20,-7 20,-25 0,-21 -5,-25 -32,-25 -51,0 -68,23 -68,97 0,50 -4,67 -20,83 -23,23 -26,55 -6,67 9,5 15,33 18,80 4,88 22,113 80,113 34,0 38,-3 38,-24 z m 670,4 c 16,-16 20,-33 20,-90 0,-54 4,-72 15,-76 8,-4 15,-18 15,-34 0,-16 -7,-30 -15,-34 -11,-4 -15,-22 -15,-76 0,-83 -18,-110 -75,-110 -30,0 -35,3 -35,24 0,18 6,25 23,28 20,3 22,9 25,70 2,43 8,71 18,79 13,10 13,14 0,28 -9,10 -16,42 -18,81 -3,56 -6,66 -25,75 -14,6 -23,18 -23,32 0,20 5,23 35,23 22,0 43,-8 55,-20 z M 615,760 c 35,-39 -3,-91 -55,-75 -28,9 -37,51 -15,75 10,11 26,20 35,20 9,0 25,-9 35,-20 z m 150,0 c 22,-24 13,-66 -15,-75 -52,-16 -90,36 -55,75 10,11 26,20 35,20 9,0 25,-9 35,-20 z"
       id="path5"
       inkscape:connector-curvature="0"
       sodipodi:nodetypes="ccccccccccscccsssssssccsssscscsssccccccssscccsccccsc" />
  </g>
  <g
     id="layer2"
     fill="#0b4a71"
     stroke="none"
     style="fill:#323330;fill-opacity:1">
    <path
       d="M -0.32900436,578.24262 -1.2877932,0.94321124 C 286.2818,1.6427092 420.05583,0 712,0 l 568,0 0,640 0,640 -640,0 -640,0 z M 1188,216.42374 1091.6271,85.355937 c 0,0 -87.3094,-1.042261 -507.6271,-3.355937 l -484,-3 0,551 0,550 545,0 546,0 z"
       id="path8"
       inkscape:connector-curvature="0"
       sodipodi:nodetypes="cccccccccccccccccc"
       style="fill:#323330;fill-opacity:1" />
    <path
       d="M264 829 c-13 -15 -20 -40 -22 -92 -3 -47 -9 -75 -18 -80 -20 -12 -17 -44 6 -67 16 -16 20 -33 20 -83 0 -74 17 -97 68 -97 27 0 32 4 32 25 0 18 -5 25 -20 25 -18 0 -20 7 -20 65 0 50 -4 69 -19 84 -17 17 -18 20 -2 35 10 11 18 40 21 84 4 60 7 67 28 70 16 3 22 10 22 28 0 21 -4 24 -38 24 -27 0 -45 -7 -58 -21z"
       id="path10"
       style="fill:#323330;fill-opacity:1" />
    <path
       d="M940 827 c0 -14 9 -26 23 -32 19 -9 22 -19 25 -75 2 -39 9 -71 18 -81 13 -14 13 -18 0 -28 -10 -8 -16 -36 -18 -79 -3 -61 -5 -67 -25 -70 -17 -3 -23 -10 -23 -28 0 -21 5 -24 35 -24 57 0 75 27 75 110 0 54 4 72 15 76 8 4 15 18 15 34 0 16 -7 30 -15 34 -11 4 -15 22 -15 76 0 83 -18 110 -75 110 -30 0 -35 -3 -35 -23z"
       id="path12"
       style="fill:#323330;fill-opacity:1" />
    <path
       d="M545 760 c-22 -24 -13 -66 15 -75 52 -16 90 36 55 75 -10 11 -26 20 -35 20 -9 0 -25 -9 -35 -20z"
       id="path14"
       style="fill:#323330;fill-opacity:1" />
    <path
       d="M695 760 c-35 -39 3 -91 55 -75 28 9 37 51 15 75 -10 11 -26 20 -35 20 -9 0 -25 -9 -35 -20z"
       id="path16"
       style="fill:#323330;fill-opacity:1" />
  </g>
  <g
     inkscape:groupmode="layer"
     id="layer3"
     inkscape:label="Layer 1" />
  <path
     style="fill:#f5da55;fill-opacity:1"
     d="m 10.029378,62.910036 c 0,-52.318427 0.02371,-55.062246 0.474577,-54.9314777 0.261017,0.075704 21.708474,0.2089593 47.661017,0.296123 25.952542,0.087164 48.070048,0.2268036 49.150008,0.3103109 l 1.96357,0.1518315 4.71587,6.4177773 4.71586,6.417778 0.20182,48.20339 0.20182,48.203391 -54.542269,0 -54.542273,0 0,-55.069124 z m 24.743649,21.970701 c 1.176353,-0.326693 1.435981,-0.946318 1.215635,-2.901226 -0.161446,-1.432349 -0.584339,-1.849914 -2.316042,-2.286866 -1.864809,-0.470538 -2.001309,-0.887542 -2.765365,-8.448103 -0.366121,-3.622883 -1.036337,-5.850696 -2.137386,-7.104721 -0.463202,-0.527558 -0.842185,-1.137649 -0.842185,-1.355759 0,-0.218107 0.410488,-0.854538 0.912196,-1.414292 1.884715,-2.10276 2.070986,-2.854335 2.312043,-9.328699 0.207754,-5.579916 0.314482,-5.926319 1.825915,-5.926319 1.43669,0 2.000693,-0.762723 2.000693,-2.705613 0,-2.244868 -0.484559,-2.554932 -3.74887,-2.398864 -2.712359,0.129678 -3.86274,0.628 -4.857543,2.10419 -0.969717,1.438961 -1.185692,2.575981 -1.41984,7.474863 -0.262821,5.498802 -0.50155,6.512936 -1.918565,8.150167 -2.496138,2.884063 -2.733316,5.027959 -0.780304,7.053318 1.001588,1.038693 1.46003,3.104187 1.87671,8.455463 0.672906,8.641896 2.26734,10.77513 8.136548,10.886099 0.820339,0.01551 1.948201,-0.09863 2.50636,-0.253638 z M 100.68545,84.61911 c 0.56592,-0.164553 1.5602,-0.810606 2.20952,-1.435672 1.69252,-1.629307 2.04042,-3.023381 2.21235,-8.865296 0.17037,-5.78877 0.39424,-6.912862 1.59595,-8.013589 1.8848,-1.726406 1.87848,-4.52 -0.0151,-6.652 -1.32599,-1.492993 -1.35606,-1.646091 -1.5946,-8.117329 -0.29235,-7.931384 -1.75193,-10.220144 -6.706275,-10.516092 -2.819786,-0.16844 -3.858916,0.054 -4.248705,0.909497 -0.416049,0.913131 -0.394373,1.838489 0.06905,2.947609 0.323168,0.773448 0.624689,0.990468 1.965972,1.415021 1.993443,0.630975 2.09386,0.896515 2.509749,6.636749 0.369855,5.104859 0.843013,7.121445 1.935843,8.250503 0.98118,1.013714 0.98973,1.265982 0.0832,2.454571 -1.035766,1.35796 -1.655042,3.937779 -1.998592,8.325836 -0.463623,5.921776 -0.52768,6.083989 -3.111696,7.879693 -2.078953,1.444724 -2.324854,4.519561 -0.408032,5.102194 0.86093,0.261684 4.158126,0.06888 5.50136,-0.321695 l 1e-5,0 z M 59.190631,77.749068 c 4.485777,-1.879778 4.997796,-7.25178 0.872646,-9.155661 -4.152814,-1.916645 -8.291745,2.047959 -6.401123,6.131515 0.550251,1.188485 1.613972,2.275981 2.875699,2.939972 1.011631,0.53238 1.542975,0.54924 2.652778,0.08417 z m 15.324128,-0.152925 c 2.969559,-1.530636 4.065486,-4.398831 2.70106,-7.069071 -0.78954,-1.545161 -1.649434,-2.147021 -3.356341,-2.34918 -3.135583,-0.371362 -5.809199,1.739832 -5.790246,4.572217 0.01283,1.918677 1.606026,4.092876 3.655062,4.988006 1.115325,0.487235 1.619517,0.461584 2.790465,-0.141972 z"
     id="path4153"
     inkscape:connector-curvature="0"
     transform="scale(9.9999999,9.9999999)" />
</svg>
